v -5.000000 -2.000000 5.000000
v 5.000000 -2.000000 5.000000
v -5.000000 -2.000000 -5.000000
v 5.000000 -2.000000 -5.000000
v -5.000000 -2.000000 0.000000
v 5.000000 -2.000000 0.000000
v -5.000000 -1.018593 2.500000
v 5.000000 -2.128824 2.500000
v 5.000000 -3.119759 -2.500000
v -5.000000 -2.373673 -2.500000
v 5.000000 -2.799570 -3.750000
v -5.000000 -2.191602 -3.750000
v -5.000000 -2.604631 -1.250000
v 5.000000 -2.210716 -1.250000
v 5.000000 -2.317322 1.250000
v -5.000000 -1.023677 1.250000
v -5.000000 -1.259170 3.750000
v 5.000000 -2.204100 3.750000
v 0.000000 -2.000000 5.000000
v 0.000000 -2.000000 -5.000000
v 0.000000 -2.000000 0.000000
v 0.000000 -1.921737 2.500000
v 0.000000 -2.951086 -2.500000
v 0.000000 -2.776184 -3.750000
v 0.000000 -2.475473 -1.250000
v 0.000000 -2.055369 1.250000
v 0.000000 -2.247411 3.750000
v -2.500000 -1.863380 -5.000000
v -2.500000 -1.962415 0.000000
v -2.500000 -1.435966 2.500000
v -2.500000 -2.575277 -2.500000
v -2.500000 -1.927133 -3.750000
v -2.500000 -2.338977 -1.250000
v -2.500000 -1.540557 1.250000
v -2.500000 -2.255831 3.750000
v -2.500000 -1.969187 5.000000
v -3.750000 -1.540831 -5.000000
v -3.750000 -1.901601 0.000000
v -3.750000 -1.250476 2.500000
v -3.750000 -2.069970 -2.500000
v -3.750000 -1.627191 -3.750000
v -3.750000 -2.247325 -1.250000
v -3.750000 -1.265819 1.250000
v -3.750000 -1.586992 3.750000
v -3.750000 -1.697113 5.000000
v -1.250000 -2.477357 5.000000
v -1.250000 -2.178754 -5.000000
v -1.250000 -2.217721 0.000000
v -1.250000 -1.410367 2.500000
v -1.250000 -3.274488 -2.500000
v -1.250000 -2.762436 -3.750000
v -1.250000 -2.766460 -1.250000
v -1.250000 -1.769873 1.250000
v -1.250000 -2.402324 3.750000
v 2.500000 -1.688700 5.000000
v 2.500000 -1.625874 -5.000000
v 2.500000 -2.019413 0.000000
v 2.500000 -1.879338 2.500000
v 2.500000 -2.858066 -2.500000
v 2.500000 -1.979060 -3.750000
v 2.500000 -2.695590 -1.250000
v 2.500000 -1.904466 1.250000
v 2.500000 -1.894704 3.750000
v 1.250000 -1.848322 -5.000000
v 1.250000 -1.563632 0.000000
v 1.250000 -1.990016 2.500000
v 1.250000 -2.595433 -2.500000
v 1.250000 -2.223771 -3.750000
v 1.250000 -2.219953 -1.250000
v 1.250000 -1.810741 1.250000
v 1.250000 -1.779936 3.750000
v 1.250000 -1.203005 5.000000
v 3.750000 -1.823720 5.000000
v 3.750000 -1.688803 -5.000000
v 3.750000 -2.299219 0.000000
v 3.750000 -2.245305 2.500000
v 3.750000 -2.811063 -2.500000
v 3.750000 -2.243766 -3.750000
v 3.750000 -2.508483 -1.250000
v 3.750000 -2.376830 1.250000
v 3.750000 -2.165198 3.750000
vn 0.2917 0.8410 0.4557
vn -0.1403 0.9780 0.1545
vn -0.0310 0.9995 -0.0019
vn 0.0039 0.8999 -0.4361
vn 0.3098 0.8960 0.3181
vn -0.2292 0.9599 -0.1613
vn -0.0697 0.9895 -0.1267
vn 0.0838 0.9736 -0.2125
vn -0.2446 0.9673 -0.0667
vn 0.2985 0.9364 -0.1847
vn -0.1850 0.9094 -0.3726
vn -0.1186 0.9575 0.2631
vn -0.2229 0.9071 -0.3569
vn 0.1251 0.8777 0.4626
vn 0.0268 0.9875 -0.1550
vn -0.0579 0.8770 0.4770
vn 0.2412 0.9687 0.0582
vn 0.1227 0.9140 -0.3867
vn 0.2962 0.8669 0.4010
vn 0.2322 0.9724 -0.0229
vn 0.2831 0.8790 0.3836
vn 0.0585 0.9591 -0.2771
vn 0.1808 0.9824 -0.0471
vn 0.3515 0.9339 -0.0659
vn 0.0094 0.9466 0.3222
vn 0.1863 0.9825 -0.0080
vn -0.1680 0.9215 -0.3503
vn -0.3193 0.9194 0.2298
vn -0.2525 0.9549 0.1560
vn 0.2131 0.9520 0.2198
vn 0.0483 0.8394 -0.5413
vn -0.3769 0.9206 0.1024
vn 0.4070 0.8843 0.2290
vn 0.1801 0.9290 -0.3232
vn 0.0391 0.8091 0.5864
vn 0.3965 0.8799 -0.2620
vn 0.4865 0.7925 0.3678
vn 0.2481 0.9085 -0.3363
vn 0.0799 0.9801 -0.1819
vn 0.2525 0.9642 -0.0816
vn 0.2234 0.9302 -0.2913
vn -0.0068 0.9981 0.0615
vn 0.3123 0.8383 -0.4468
vn 0.0064 0.8943 0.4474
vn 0.2774 0.9393 -0.2021
vn 0.0016 0.9970 -0.0777
vn 0.2144 0.9754 0.0516
vn -0.1766 0.9450 0.2754
vn -0.2478 0.8799 0.4053
vn -0.2610 0.9583 0.1160
vn -0.1575 0.9865 0.0456
vn -0.2255 0.9223 -0.3140
vn -0.3344 0.9207 0.2013
vn -0.2445 0.8833 -0.3999
vn -0.0704 0.9974 0.0182
vn -0.4330 0.8561 -0.2823
vn 0.1565 0.9648 -0.2113
vn 0.3174 0.9464 -0.0593
vn 0.0349 0.9420 -0.3337
vn 0.0752 0.8631 0.4993
vn -0.0917 0.9790 -0.1821
vn 0.2466 0.9688 -0.0251
vn 0.2881 0.9575 -0.0143
vn 0.1223 0.9329 0.3389
vt 0.000000 0.000000
vt 1.000000 0.000000
vt 0.000000 1.000000
vt 1.000000 1.000000
vt 0.000000 0.500000
vt 1.000000 0.500000
vt 0.000000 0.250000
vt 1.000000 0.250000
vt 1.000000 0.750000
vt 0.000000 0.750000
vt 1.000000 0.875000
vt 0.000000 0.875000
vt 0.000000 0.625000
vt 1.000000 0.625000
vt 1.000000 0.375000
vt 0.000000 0.375000
vt 0.000000 0.125000
vt 1.000000 0.125000
vt 0.500000 0.000000
vt 0.500000 1.000000
vt 0.500000 0.500000
vt 0.500000 0.250000
vt 0.500000 0.750000
vt 0.500000 0.875000
vt 0.500000 0.625000
vt 0.500000 0.375000
vt 0.500000 0.125000
vt 0.250000 1.000000
vt 0.250000 0.500000
vt 0.250000 0.250000
vt 0.250000 0.750000
vt 0.250000 0.875000
vt 0.250000 0.625000
vt 0.250000 0.375000
vt 0.250000 0.125000
vt 0.250000 0.000000
vt 0.125000 1.000000
vt 0.125000 0.500000
vt 0.125000 0.250000
vt 0.125000 0.750000
vt 0.125000 0.875000
vt 0.125000 0.625000
vt 0.125000 0.375000
vt 0.125000 0.125000
vt 0.125000 0.000000
vt 0.375000 0.000000
vt 0.375000 1.000000
vt 0.375000 0.500000
vt 0.375000 0.250000
vt 0.375000 0.750000
vt 0.375000 0.875000
vt 0.375000 0.625000
vt 0.375000 0.375000
vt 0.375000 0.125000
vt 0.750000 0.000000
vt 0.750000 1.000000
vt 0.750000 0.500000
vt 0.750000 0.250000
vt 0.750000 0.750000
vt 0.750000 0.875000
vt 0.750000 0.625000
vt 0.750000 0.375000
vt 0.750000 0.125000
vt 0.625000 1.000000
vt 0.625000 0.500000
vt 0.625000 0.250000
vt 0.625000 0.750000
vt 0.625000 0.875000
vt 0.625000 0.625000
vt 0.625000 0.375000
vt 0.625000 0.125000
vt 0.625000 0.000000
vt 0.875000 0.000000
vt 0.875000 1.000000
vt 0.875000 0.500000
vt 0.875000 0.250000
vt 0.875000 0.750000
vt 0.875000 0.875000
vt 0.875000 0.625000
vt 0.875000 0.375000
vt 0.875000 0.125000
f 78/78/1 11/11/1 4/4/1 74/74/1
f 80/80/2 15/15/2 6/6/2 75/75/2
f 81/81/3 18/18/3 8/8/3 76/76/3
f 79/79/4 14/14/4 9/9/4 77/77/4
f 77/77/5 9/9/5 11/11/5 78/78/5
f 75/75/6 6/6/6 14/14/6 79/79/6
f 76/76/7 8/8/7 15/15/7 80/80/7
f 73/73/8 2/2/8 18/18/8 81/81/8
f 46/46/9 19/19/9 27/27/9 54/54/9
f 49/49/10 22/22/10 26/26/10 53/53/10
f 48/48/11 21/21/11 25/25/11 52/52/11
f 50/50/12 23/23/12 24/24/12 51/51/12
f 52/52/13 25/25/13 23/23/13 50/50/13
f 54/54/14 27/27/14 22/22/14 49/49/14
f 53/53/15 26/26/15 21/21/15 48/48/15
f 51/51/16 24/24/16 20/20/16 47/47/16
f 41/41/17 32/32/17 28/28/17 37/37/17
f 43/43/18 34/34/18 29/29/18 38/38/18
f 44/44/19 35/35/19 30/30/19 39/39/19
f 42/42/20 33/33/20 31/31/20 40/40/20
f 40/40/21 31/31/21 32/32/21 41/41/21
f 38/38/22 29/29/22 33/33/22 42/42/22
f 39/39/23 30/30/23 34/34/23 43/43/23
f 45/45/24 36/36/24 35/35/24 44/44/24
f 1/1/25 45/45/25 44/44/25 17/17/25
f 7/7/26 39/39/26 43/43/26 16/16/26
f 5/5/27 38/38/27 42/42/27 13/13/27
f 10/10/28 40/40/28 41/41/28 12/12/28
f 13/13/29 42/42/29 40/40/29 10/10/29
f 17/17/30 44/44/30 39/39/30 7/7/30
f 16/16/31 43/43/31 38/38/31 5/5/31
f 12/12/32 41/41/32 37/37/32 3/3/32
f 32/32/33 51/51/33 47/47/33 28/28/33
f 34/34/34 53/53/34 48/48/34 29/29/34
f 35/35/35 54/54/35 49/49/35 30/30/35
f 33/33/36 52/52/36 50/50/36 31/31/36
f 31/31/37 50/50/37 51/51/37 32/32/37
f 29/29/38 48/48/38 52/52/38 33/33/38
f 30/30/39 49/49/39 53/53/39 34/34/39
f 36/36/40 46/46/40 54/54/40 35/35/40
f 72/72/41 55/55/41 63/63/41 71/71/41
f 66/66/42 58/58/42 62/62/42 70/70/42
f 65/65/43 57/57/43 61/61/43 69/69/43
f 67/67/44 59/59/44 60/60/44 68/68/44
f 69/69/45 61/61/45 59/59/45 67/67/45
f 71/71/46 63/63/46 58/58/46 66/66/46
f 70/70/47 62/62/47 57/57/47 65/65/47
f 68/68/48 60/60/48 56/56/48 64/64/48
f 24/24/49 68/68/49 64/64/49 20/20/49
f 26/26/50 70/70/50 65/65/50 21/21/50
f 27/27/51 71/71/51 66/66/51 22/22/51
f 25/25/52 69/69/52 67/67/52 23/23/52
f 23/23/53 67/67/53 68/68/53 24/24/53
f 21/21/54 65/65/54 69/69/54 25/25/54
f 22/22/55 66/66/55 70/70/55 26/26/55
f 19/19/56 72/72/56 71/71/56 27/27/56
f 55/55/57 73/73/57 81/81/57 63/63/57
f 58/58/58 76/76/58 80/80/58 62/62/58
f 57/57/59 75/75/59 79/79/59 61/61/59
f 59/59/60 77/77/60 78/78/60 60/60/60
f 61/61/61 79/79/61 77/77/61 59/59/61
f 63/63/62 81/81/62 76/76/62 58/58/62
f 62/62/63 80/80/63 75/75/63 57/57/63
f 60/60/64 78/78/64 74/74/64 56/56/64